<mxfile host="Electron" modified="2023-06-11T04:25:18.012Z" agent="Mozilla/5.0 (Windows NT 10.0; Win64; x64) AppleWebKit/537.36 (KHTML, like Gecko) draw.io/21.3.7 Chrome/112.0.5615.204 Electron/24.5.0 Safari/537.36" etag="ecE5RaCqS8RQR014ZFVm" version="21.3.7" type="device">
  <diagram name="第 1 页" id="w7HVuXoMf9cP2AOW4FR7">
    <mxGraphModel dx="6780" dy="4340" grid="0" gridSize="10" guides="1" tooltips="1" connect="1" arrows="1" fold="1" page="1" pageScale="1" pageWidth="1169" pageHeight="1654" math="0" shadow="0">
      <root>
        <mxCell id="0" />
        <mxCell id="1" parent="0" />
        <mxCell id="BcVupVshyJ0E1qQxwJ2--20" value="" style="rounded=0;whiteSpace=wrap;html=1;" parent="1" vertex="1">
          <mxGeometry x="526" y="614" width="520" height="449" as="geometry" />
        </mxCell>
        <mxCell id="k_AsRxzUmlBKbkoEUQ4x-7" value="" style="edgeStyle=orthogonalEdgeStyle;rounded=0;orthogonalLoop=1;jettySize=auto;html=1;strokeWidth=1;" parent="1" source="BcVupVshyJ0E1qQxwJ2--1" target="k_AsRxzUmlBKbkoEUQ4x-2" edge="1">
          <mxGeometry relative="1" as="geometry" />
        </mxCell>
        <mxCell id="k_AsRxzUmlBKbkoEUQ4x-8" value="" style="edgeStyle=orthogonalEdgeStyle;rounded=0;orthogonalLoop=1;jettySize=auto;html=1;strokeWidth=1;" parent="1" source="BcVupVshyJ0E1qQxwJ2--1" target="BcVupVshyJ0E1qQxwJ2--2" edge="1">
          <mxGeometry relative="1" as="geometry" />
        </mxCell>
        <mxCell id="BcVupVshyJ0E1qQxwJ2--1" value="登录界面" style="rounded=0;whiteSpace=wrap;html=1;" parent="1" vertex="1">
          <mxGeometry x="305" y="275" width="120" height="60" as="geometry" />
        </mxCell>
        <mxCell id="BcVupVshyJ0E1qQxwJ2--2" value="注册界面" style="rounded=0;whiteSpace=wrap;html=1;" parent="1" vertex="1">
          <mxGeometry x="127" y="275" width="120" height="60" as="geometry" />
        </mxCell>
        <mxCell id="k_AsRxzUmlBKbkoEUQ4x-9" value="" style="edgeStyle=orthogonalEdgeStyle;rounded=0;orthogonalLoop=1;jettySize=auto;html=1;strokeWidth=1;" parent="1" source="BcVupVshyJ0E1qQxwJ2--6" target="k_AsRxzUmlBKbkoEUQ4x-3" edge="1">
          <mxGeometry relative="1" as="geometry" />
        </mxCell>
        <mxCell id="k_AsRxzUmlBKbkoEUQ4x-10" style="rounded=0;orthogonalLoop=1;jettySize=auto;html=1;entryX=0;entryY=0.5;entryDx=0;entryDy=0;strokeWidth=1;" parent="1" source="BcVupVshyJ0E1qQxwJ2--6" target="BcVupVshyJ0E1qQxwJ2--8" edge="1">
          <mxGeometry relative="1" as="geometry" />
        </mxCell>
        <mxCell id="k_AsRxzUmlBKbkoEUQ4x-11" style="rounded=0;orthogonalLoop=1;jettySize=auto;html=1;entryX=0;entryY=0.5;entryDx=0;entryDy=0;strokeWidth=1;" parent="1" source="BcVupVshyJ0E1qQxwJ2--6" target="BcVupVshyJ0E1qQxwJ2--9" edge="1">
          <mxGeometry relative="1" as="geometry" />
        </mxCell>
        <mxCell id="BcVupVshyJ0E1qQxwJ2--6" value="好友列表" style="rounded=0;whiteSpace=wrap;html=1;" parent="1" vertex="1">
          <mxGeometry x="644" y="275" width="120" height="60" as="geometry" />
        </mxCell>
        <mxCell id="BcVupVshyJ0E1qQxwJ2--8" value="聊天窗口" style="rounded=0;whiteSpace=wrap;html=1;" parent="1" vertex="1">
          <mxGeometry x="855" y="218" width="120" height="60" as="geometry" />
        </mxCell>
        <mxCell id="BcVupVshyJ0E1qQxwJ2--9" value="好友申请窗口" style="rounded=0;whiteSpace=wrap;html=1;" parent="1" vertex="1">
          <mxGeometry x="855" y="338" width="120" height="60" as="geometry" />
        </mxCell>
        <mxCell id="BcVupVshyJ0E1qQxwJ2--21" value="UI框架" style="text;html=1;align=center;verticalAlign=middle;resizable=0;points=[];autosize=1;strokeColor=none;fillColor=none;" parent="1" vertex="1">
          <mxGeometry x="249" y="43" width="54" height="26" as="geometry" />
        </mxCell>
        <mxCell id="k_AsRxzUmlBKbkoEUQ4x-2" value="注册反馈弹窗" style="rounded=0;whiteSpace=wrap;html=1;" parent="1" vertex="1">
          <mxGeometry x="305" y="158" width="120" height="60" as="geometry" />
        </mxCell>
        <mxCell id="k_AsRxzUmlBKbkoEUQ4x-3" value="申请反馈弹窗" style="rounded=0;whiteSpace=wrap;html=1;" parent="1" vertex="1">
          <mxGeometry x="644" y="158" width="120" height="60" as="geometry" />
        </mxCell>
        <mxCell id="k_AsRxzUmlBKbkoEUQ4x-5" value="" style="edgeStyle=orthogonalEdgeStyle;rounded=0;orthogonalLoop=1;jettySize=auto;html=1;strokeWidth=1;" parent="1" source="k_AsRxzUmlBKbkoEUQ4x-4" target="BcVupVshyJ0E1qQxwJ2--6" edge="1">
          <mxGeometry relative="1" as="geometry" />
        </mxCell>
        <mxCell id="k_AsRxzUmlBKbkoEUQ4x-6" value="" style="edgeStyle=orthogonalEdgeStyle;rounded=0;orthogonalLoop=1;jettySize=auto;html=1;strokeWidth=1;" parent="1" source="k_AsRxzUmlBKbkoEUQ4x-4" target="BcVupVshyJ0E1qQxwJ2--1" edge="1">
          <mxGeometry relative="1" as="geometry" />
        </mxCell>
        <mxCell id="k_AsRxzUmlBKbkoEUQ4x-4" value="状态切换机" style="rounded=0;whiteSpace=wrap;html=1;" parent="1" vertex="1">
          <mxGeometry x="477" y="275" width="120" height="60" as="geometry" />
        </mxCell>
      </root>
    </mxGraphModel>
  </diagram>
</mxfile>
